<?xml version="1.0" encoding="utf-8"?>
<!-- Generator: Adobe Illustrator 25.4.1, SVG Export Plug-In . SVG Version: 6.00 Build 0)  -->
<svg version="1.1" id="Layer_1" xmlns="http://www.w3.org/2000/svg" xmlns:xlink="http://www.w3.org/1999/xlink" x="0px" y="0px"
	 viewBox="0 0 60 40" style="enable-background:new 0 0 60 40;" xml:space="preserve">
<style type="text/css">
	.st0{fill-rule:evenodd;clip-rule:evenodd;}
	
		.st1{fill-rule:evenodd;clip-rule:evenodd;fill:none;stroke:#000000;stroke-width:2.8346;stroke-linecap:round;stroke-linejoin:round;stroke-miterlimit:10;}
</style>
<path class="st0" d="M10.5,5.8c0-2.6,2.2-4.8,4.8-4.8h3.2c2.6,0,4.8,2.2,4.8,4.8v3.2c0,2.6-2.2,4.8-4.8,4.8v3.2h7.9
	c0.9,0,1.6,0.7,1.6,1.6v3.2c0,0.9-0.7,1.6-1.6,1.6c-0.9,0-1.6-0.7-1.6-1.6V20H8.9v1.6c0,0.9-0.7,1.6-1.6,1.6c-0.9,0-1.6-0.7-1.6-1.6
	v-3.2c0-0.9,0.7-1.6,1.6-1.6h7.9v-3.2c-2.6,0-4.8-2.2-4.8-4.8V5.8z M18.4,10.5c0.9,0,1.6-0.7,1.6-1.6V5.8c0-0.9-0.7-1.6-1.6-1.6
	h-3.2c-0.9,0-1.6,0.7-1.6,1.6v3.2c0,0.9,0.7,1.6,1.6,1.6H18.4z M1,31.1c0-2.6,2.2-4.8,4.8-4.8h3.2c2.6,0,4.8,2.2,4.8,4.8v3.2
	c0,2.6-2.2,4.8-4.8,4.8H5.8C3.2,39,1,36.8,1,34.3V31.1z M5.8,29.5c-0.9,0-1.6,0.7-1.6,1.6v3.2c0,0.9,0.7,1.6,1.6,1.6h3.2
	c0.9,0,1.6-0.7,1.6-1.6v-3.2c0-0.9-0.7-1.6-1.6-1.6H5.8z M20,31.1c0-2.6,2.2-4.8,4.8-4.8h3.2c2.6,0,4.8,2.2,4.8,4.8v3.2
	c0,2.6-2.2,4.8-4.8,4.8h-3.2c-2.6,0-4.8-2.2-4.8-4.8V31.1z M24.8,29.5c-0.9,0-1.6,0.7-1.6,1.6v3.2c0,0.9,0.7,1.6,1.6,1.6h3.2
	c0.9,0,1.6-0.7,1.6-1.6v-3.2c0-0.9-0.7-1.6-1.6-1.6H24.8z"/>
<polyline class="st1" points="38.1,15.9 46.4,24.1 54.5,16 "/>
</svg>
