<?xml version="1.0" encoding="utf-8"?>
<!-- Generator: Adobe Illustrator 25.4.1, SVG Export Plug-In . SVG Version: 6.00 Build 0)  -->
<svg version="1.1" id="Layer_1" xmlns="http://www.w3.org/2000/svg" xmlns:xlink="http://www.w3.org/1999/xlink" x="0px" y="0px"
	 viewBox="0 0 64 64" style="enable-background:new 0 0 64 64;" xml:space="preserve">
<path d="M20.7,5.8c-0.6,0-1.1,0.3-1.5,0.7L7.8,20.8h16.7c1,0,1.9,0.8,1.9,1.9c0,3.1,2.5,5.6,5.6,5.6s5.6-2.5,5.6-5.6
	c0-1,0.8-1.9,1.9-1.9h16.7L44.8,6.5c-0.4-0.4-0.9-0.7-1.5-0.7H20.7z M58,24.5H41.2c-1,5.1-6,8.4-11.1,7.3c-3.7-0.7-6.6-3.6-7.3-7.3
	H6l1.2,9.6c0.1,0.9,0.9,1.6,1.9,1.6h45.9c0.9,0,1.7-0.7,1.9-1.6L58,24.5L58,24.5z M16.3,4.1C17.4,2.8,19,2,20.7,2h22.6
	c1.7,0,3.3,0.8,4.4,2.1l13.9,17.3c0.3,0.4,0.5,0.9,0.4,1.4l-1.5,11.7c-0.4,2.8-2.7,4.9-5.6,4.9H9.1c-2.8,0-5.2-2.1-5.6-4.9L2,22.9
	c-0.1-0.5,0.1-1,0.4-1.4L16.3,4.1L16.3,4.1z M2.5,43.9c0.4-0.4,0.9-0.6,1.4-0.6h20.6c1,0,1.9,0.8,1.9,1.9c0,3.1,2.5,5.6,5.6,5.6
	s5.6-2.5,5.6-5.6c0-1,0.8-1.9,1.9-1.9h20.6c1,0,1.9,0.8,1.9,1.9c0,0.1,0,0.2,0,0.2l-1.5,11.7c-0.4,2.8-2.7,4.9-5.6,4.9H9.1
	c-2.8,0-5.2-2.1-5.6-4.9L2,45.4C1.9,44.8,2.1,44.3,2.5,43.9L2.5,43.9z M6,47l1.2,9.6c0.1,0.9,0.9,1.6,1.9,1.6h45.9
	c0.9,0,1.7-0.7,1.9-1.6L58,47H41.2c-1,5.1-6,8.4-11.1,7.3c-3.7-0.7-6.6-3.6-7.3-7.3H6z"/>
</svg>
