<?xml version="1.0" encoding="utf-8"?>
<!-- Generator: Adobe Illustrator 25.4.1, SVG Export Plug-In . SVG Version: 6.00 Build 0)  -->
<svg version="1.1" id="Layer_1" xmlns="http://www.w3.org/2000/svg" xmlns:xlink="http://www.w3.org/1999/xlink" x="0px" y="0px"
	 viewBox="0 0 64 64" style="enable-background:new 0 0 64 64;" xml:space="preserve">
<path d="M31.1,2.2c0.6-0.3,1.3-0.3,1.9,0l14.1,8c0.6,0.3,0.9,1,0.9,1.6v15l13.1,7.5c0.6,0.3,0.9,0.9,0.9,1.6v16.1
	c0,0.7-0.4,1.3-0.9,1.6l-14.1,8c-0.6,0.3-1.3,0.3-1.9,0L32,54.2l-13.1,7.5c-0.6,0.3-1.3,0.3-1.9,0l-14.1-8c-0.6-0.3-0.9-1-0.9-1.6
	V36c0-0.7,0.4-1.3,0.9-1.6l13.1-7.5v-15c0-0.7,0.4-1.3,0.9-1.6L31.1,2.2z M17.9,30.1L7.7,36l10.3,5.9L28.2,36L17.9,30.1z M30.1,39.2
	l-10.3,5.9v11.8L30.1,51V39.2z M33.9,51l10.3,5.9V45.1l-10.3-5.9V51z M35.8,36l10.3,5.9L56.3,36l-10.3-5.9
	C46.1,30.1,35.8,36,35.8,36z M44.2,26.9V15.1L33.9,21v11.8C33.9,32.8,44.2,26.9,44.2,26.9z M30.1,32.8V21l-10.3-5.9v11.8L30.1,32.8z
	 M21.7,11.9L32,17.8l10.3-5.9L32,6L21.7,11.9z M58.2,39.2l-10.3,5.9v11.8L58.2,51V39.2z M16.1,56.9V45.1L5.8,39.2V51L16.1,56.9z"/>
</svg>
