<?xml version="1.0" encoding="utf-8"?>
<!-- Generator: Adobe Illustrator 25.4.1, SVG Export Plug-In . SVG Version: 6.00 Build 0)  -->
<svg version="1.1" id="Layer_1" xmlns="http://www.w3.org/2000/svg" xmlns:xlink="http://www.w3.org/1999/xlink" x="0px" y="0px"
	 viewBox="0 0 16 16" style="enable-background:new 0 0 16 16;" xml:space="preserve">
<path d="M16,3H5.7l1.5-1.5L6.5,0.7l-2,2l-2-2L1.7,1.5L3.3,3H0v1h3.3L1.7,5.5l0.7,0.7L4,4.7V6C3,6.2,2.2,6.9,2,8H0v1h2
	c0.2,1,1,1.8,2,2c1.3,0.2,2.6-0.6,2.9-2h3.6l-1.5,1.5l0.7,0.7l1.4-1.4V11c-1,0.2-1.8,0.9-2,2H0v1h9c0.2,1,1,1.8,2,2
	c1.3,0.2,2.6-0.6,2.9-2H16v-1h-2c-0.2-1-0.9-1.7-1.9-2V9.7l1.5,1.5l0.7-0.7L12.8,9H16V8h-3.1l1.4-1.4l-0.7-0.7l-2,2l-2-2L8.9,6.6
	L10.4,8H7C6.8,7,6,6.2,5,6V4.7l1.5,1.5l0.7-0.7L5.7,4H16V3z M13,13.5c0,0.8-0.7,1.5-1.5,1.5S10,14.3,10,13.5c0-0.8,0.7-1.5,1.5-1.5
	S13,12.7,13,13.5z M6,8.5C6,9.3,5.3,10,4.5,10S3,9.3,3,8.5C3,7.7,3.7,7,4.5,7S6,7.7,6,8.5z"/>
</svg>
