<?xml version="1.0" encoding="utf-8"?>
<!-- Generator: Adobe Illustrator 25.4.1, SVG Export Plug-In . SVG Version: 6.00 Build 0)  -->
<svg version="1.1" id="Layer_1" xmlns="http://www.w3.org/2000/svg" xmlns:xlink="http://www.w3.org/1999/xlink" x="0px" y="0px"
	 viewBox="0 0 64 64" style="enable-background:new 0 0 64 64;" xml:space="preserve">
<path d="M20.8,2c1,0,1.9,0.8,1.9,1.9v5.6h3.8V3.9c0-1,0.8-1.9,1.9-1.9s1.9,0.8,1.9,1.9v5.6h3.8V3.9c0-1,0.8-1.9,1.9-1.9
	s1.9,0.8,1.9,1.9v5.6h3.8V3.9c0-1,0.8-1.9,1.9-1.9s1.9,0.8,1.9,1.9v5.6c5.2,0,9.4,4.2,9.4,9.4h5.6c1,0,1.9,0.8,1.9,1.9
	c0,1-0.8,1.9-1.9,1.9h-5.6v3.8h5.6c1,0,1.9,0.8,1.9,1.9c0,1-0.8,1.9-1.9,1.9h-5.6v3.8h5.6c1,0,1.9,0.8,1.9,1.9s-0.8,1.9-1.9,1.9
	h-5.6v3.8h5.6c1,0,1.9,0.8,1.9,1.9s-0.8,1.9-1.9,1.9h-5.6c0,5.2-4.2,9.4-9.4,9.4v5.6c0,1-0.8,1.9-1.9,1.9s-1.9-0.8-1.9-1.9v-5.6
	h-3.8v5.6c0,1-0.8,1.9-1.9,1.9s-1.9-0.8-1.9-1.9v-5.6h-3.8v5.6c0,1-0.8,1.9-1.9,1.9s-1.9-0.8-1.9-1.9v-5.6h-3.8v5.6
	c0,1-0.8,1.9-1.9,1.9s-1.9-0.8-1.9-1.9v-5.6c-5.2,0-9.4-4.2-9.4-9.4H3.9c-1,0-1.9-0.8-1.9-1.9s0.8-1.9,1.9-1.9h5.6v-3.8H3.9
	c-1,0-1.9-0.8-1.9-1.9s0.8-1.9,1.9-1.9h5.6v-3.8H3.9c-1,0-1.9-0.8-1.9-1.9c0-1,0.8-1.9,1.9-1.9h5.6v-3.8H3.9c-1,0-1.9-0.8-1.9-1.9
	c0-1,0.8-1.9,1.9-1.9h5.6c0-5.2,4.2-9.4,9.4-9.4V3.9C18.9,2.8,19.7,2,20.8,2z M18.9,13.3c-3.1,0-5.6,2.5-5.6,5.6v26.2
	c0,3.1,2.5,5.6,5.6,5.6h26.2c3.1,0,5.6-2.5,5.6-5.6V18.9c0-3.1-2.5-5.6-5.6-5.6H18.9z M20.8,26.4c0-3.1,2.5-5.6,5.6-5.6h11.2
	c3.1,0,5.6,2.5,5.6,5.6v11.2c0,3.1-2.5,5.6-5.6,5.6H26.4c-3.1,0-5.6-2.5-5.6-5.6V26.4z M26.4,24.5c-1,0-1.9,0.8-1.9,1.9v11.2
	c0,1,0.8,1.9,1.9,1.9h11.2c1,0,1.9-0.8,1.9-1.9V26.4c0-1-0.8-1.9-1.9-1.9H26.4z"/>
</svg>
