<?xml version="1.0" encoding="utf-8"?>
<!-- Generator: Adobe Illustrator 25.4.1, SVG Export Plug-In . SVG Version: 6.00 Build 0)  -->
<svg version="1.1" id="Layer_1" xmlns="http://www.w3.org/2000/svg" xmlns:xlink="http://www.w3.org/1999/xlink" x="0px" y="0px"
	 viewBox="0 0 64 64" style="enable-background:new 0 0 64 64;" xml:space="preserve">
<path d="M58,12c1.1,0,2,0.9,2,2v36c0,1.1-0.9,2-2,2H6c-1.1,0-2-0.9-2-2V14c0-1.1,0.9-2,2-2H58z M6,8c-3.3,0-6,2.7-6,6v36
	c0,3.3,2.7,6,6,6h52c3.3,0,6-2.7,6-6V14c0-3.3-2.7-6-6-6H6z"/>
<path d="M28,22c0-1.1,0.9-2,2-2h20c1.1,0,2,0.9,2,2s-0.9,2-2,2H30C28.9,24,28,23.1,28,22z M22,18.6c0.8,0.8,0.8,2,0,2.8c0,0,0,0,0,0
	l-6,6c-0.8,0.8-2,0.8-2.8,0c0,0,0,0,0,0l-2-2c-0.8-0.8-0.8-2,0-2.8c0.8-0.8,2-0.8,2.8,0l0,0l0.6,0.6l4.6-4.6
	C20,17.8,21.2,17.8,22,18.6C22,18.6,22,18.6,22,18.6z M28,38c0-1.1,0.9-2,2-2h20c1.1,0,2,0.9,2,2s-0.9,2-2,2H30
	C28.9,40,28,39.1,28,38z M22,34.6c0.8,0.8,0.8,2,0,2.8c0,0,0,0,0,0l-6,6c-0.8,0.8-2,0.8-2.8,0c0,0,0,0,0,0l-2-2
	c-0.8-0.8-0.8-2,0-2.8c0.8-0.8,2-0.8,2.8,0l0.6,0.6l4.6-4.6C20,33.8,21.2,33.8,22,34.6C22,34.6,22,34.6,22,34.6z"/>
</svg>
